<svg xmlns="http://www.w3.org/2000/svg" width="366" height="125" fill="none"><path fill="#191919" d="M365.175 68.4c-.094 5.668-1.083 11.309-1.617 16.91-.895 9.446-1.35 19.013-2.526 28.472-.227 1.876-.988 8.361-1.897 9.42-1.323 1.541-7.991 1.407-10.075 1.286-1.604-.094-6.668-.616-7.576-1.648l-8.151-28.526c-.588-.643-.762.053-.829.63-.895 7.061-1.162 15.328-2.552 22.175-.267 1.299-.935 4.609-2.285 4.85-1.336.241-7.376-.911-8.178-1.902-1.349-1.675.214-8.509.415-10.894.588-7.356.935-14.846 1.697-22.189.548-5.319 1.349-10.665 2.044-15.958 1.523-1.849 12.293-.737 14.765.107l11.719 32.815 4.423-35.186c3.14-1.85 7.255-1.474 10.636-.375l-.013.013ZM63.819 112.629l27.686-2.492c.107 1.875.749 3.751.882 5.614.094 1.273.348 6.954-.708 7.289l-39.418.911c-1.978-1.956-.348-14.216-.187-17.379.494-9.62.48-23.02 2.605-32.17 1.19-5.146 4.583-3.283 8.498-3.672 7.737-.75 15.768-2.05 23.518-2.505 1.657-.094 6.775-.563 7.256 1.125.307 1.099.908 6.177.948 7.45.067 2.398-.681 3.524-3.193 3.966-6.147 1.058-13.336 1.045-19.71 1.702-2.351.24-5.13-.978-5.638 2.331-.16 1.085-.481 4.81-.468 5.855.027 1.22.641 1.85 1.844 1.85 2.178-.014 6.133-1.3 8.512-1.608 1.136-.148 4.53-.684 5.345-.402 1.35.482 2.632 7.53 2.365 8.923-.548 2.841-7.737 2.117-9.848 2.318-1.55.148-7.737.63-8.619 1.032-.52.241-.708.737-.815 1.273-.521 2.573-.454 5.896-.855 8.575v.014Zm83.967 0 27.687-2.492c.106 1.875.748 3.751.881 5.614.094 1.273.348 6.954-.708 7.289l-39.418.911c-1.978-1.956-.347-14.216-.187-17.379.494-9.62.481-23.02 2.605-32.17 1.19-5.146 4.584-3.283 8.499-3.672 7.737-.75 15.767-2.05 23.517-2.505 1.657-.094 6.775-.563 7.256 1.125.307 1.099.908 6.177.949 7.45.066 2.398-.682 3.524-3.194 3.966-6.147 1.058-13.335 1.045-19.709 1.702-2.352.24-5.131-.978-5.639 2.331-.16 1.085-.481 4.81-.468 5.855.027 1.22.642 1.85 1.844 1.85 2.178-.014 6.134-1.3 8.512-1.608 1.136-.148 4.53-.684 5.345-.402 1.349.482 2.632 7.53 2.365 8.923-.548 2.841-7.737 2.117-9.848 2.318-1.55.148-7.737.63-8.619 1.032-.521.241-.708.737-.815 1.273-.521 2.573-.454 5.896-.855 8.575v.014Zm113.191 1.283c-6.734 9.433-24.292 11.322-33.392 4.529-2.178-1.635-5.478-6.096-5.879-8.803-.695-4.623-.241-16.253.922-20.809 3.26-12.769 15.046-23.02 28.715-17.995 16.008 5.896 18.667 30.403 9.634 43.065v.013Zm-19.696-29.906c-4.97 1.005-7.549 12.595-6.988 16.829 1.149 8.682 13.416 11.215 18.012 2.974 5.185-9.285 1.804-22.39-11.024-19.803Zm68.388 29.906c-6.735 9.433-24.293 11.322-33.392 4.529-2.178-1.635-5.479-6.096-5.88-8.803-.694-4.623-.24-16.253.922-20.809 3.261-12.769 15.046-23.02 28.716-17.995 16.007 5.896 18.667 30.403 9.634 43.065v.013Zm-19.696-29.906c-4.971 1.005-7.55 12.595-6.989 16.829 1.15 8.682 13.416 11.215 18.013 2.974 5.184-9.285 1.804-22.39-11.024-19.803ZM47.81 69.513c.401.227.869 2.411.936 3.054.24 2.627.28 8.362-.014 10.92-.427 3.726-3.861 2.413-6.507 2.72-1.897.215-4.009.67-5.88.831-1.442.121-6.467-.536-6.867.697l1.563 34.02c-.348.563-10.276 1.796-11.291 1.126-.588-.389-.788-2.198-.842-2.935-.641-7.932-.013-16.306-.414-24.292-.094-1.822.4-5.668-.04-7.075-.415-1.313-3.942.054-5.185.134-1.67.12-3.354-.067-5.024 0-1.67.08-6 1.14-7.149 0-1.39-1.38-1.47-16.333-.173-18.209 1.135-1.635 3.728-.63 5.197-.63 12.347 0 24.68-.844 36.96-.897.588 0 4.557.401 4.757.522l-.027.014Zm163.259 19.211c.642.737 1.818 11.831 1.27 12.783-1.978 1.058-4.971 1.527-7.256 1.755-1.603.161-7.255-.536-7.897.938-1.122 3.068.642 18.464-.467 20.045-.522.737-7.016.335-8.432.375-3.795.08-5.211 1.97-5.666-3.524-.922-11.175 1.457-29.183 2.953-40.64.228-1.795 1.176-9.338 1.885-10.276.387-.51 4.543-1.153 5.465-1.246 5.157-.47 10.756-.483 15.941-.844 2.579-.188 10.877-1.77 12.814-.63.588.335.775 1.447.842 2.09.16 1.42.187 8.937-.227 9.848-1.163 2.6-8.886 1.903-11.318 2.104-2.191.174-4.516.683-6.708.844-1.697.12-3.928-.295-5.478-.013-2.352.428-1.804 6.927.093 7.476 1.898.55 10.89-2.6 12.2-1.085h-.014Zm-100.23 20.303c4.851.174 9.648-.174 14.485-.416 1.697.871 6-.227 6.975 1.005.347.429.815 4.569.815 5.467 0 .549-.414 4.757-.494 4.998-.294.884-6.107 1.434-7.296 1.514-2.352.174-4.77-.134-7.135 0-6.588.415-13.389 1.889-19.883-.067.574-5.601.414-11.309.788-16.91.588-8.923 1.563-17.927 2.512-26.81.201-1.917-.468-7.612 1.978-8.067 1.216-.228 6.788-.335 7.817-.027.935.282 1.229 1.474 1.443 2.318.133 12.394-1.069 24.668-2.005 36.981v.014ZM138.539.908l5.185 31.273 1.269-.63 10.864-22.228c1.844-1.756 6.4-.496 8.859-.911 1.109 2.76 6.053 24.171 7.255 24.614.762.28 1.176-1.528 1.363-2.037 2.766-7.718 3.688-16.896 6.187-24.761.334-1.072 1.203-3.82 1.831-4.543 1.844-2.157 9.674.215 12.493-.04.428.415-.748 6.23-.962 7.303-1.216 5.922-2.819 12.3-4.249 18.236-2.298 9.593-5.051 19.133-7.59 28.673-5.224.215-10.435 1.42-15.687.724l-6.561-22.711c-.948 0-1.643 1.474-2.057 2.184-3.034 5.051-4.851 11.71-7.563 17.043-.441.858-1.617 3.51-2.178 3.966-1.31 1.086-11.385.79-12.4-.737-1.083-1.634-2.392-11.617-2.726-14.243-.829-6.431-1.029-12.997-1.751-19.442-.802-7.181-2.365-14.35-2.565-21.572.254-.911 10.355-1.045 10.983-.174v.013Zm141.185 27.357c-.294.482.027 1.14.187 1.608 2.619 7.731 9.233 16.615 12.226 24.681.816 2.21 1.123 3.095-1.616 3.363-1.55.148-10.383.16-11.118-.402l-12.908-27.387c-1.149-.697-7.188.12-7.589 1.34l-.508 24.72c-2.004-.763-11.745 1.608-12.534.47-.494-.71-.107-10.653-.173-12.542-.348-11.965-1.243-27.629 0-39.393.307-2.92.641-3.336 3.607-3.604 10.276-.911 26.578-2.52 35.878 1.916 11.638 5.547 10.663 18.383-.628 23.515-.815.375-4.69 1.528-4.824 1.755v-.04ZM260.215 12.2c-.641.63-.788 4.797-.334 5.44.735 1.045 14.151.87 11.398-5.011-1.015-2.171-9.781-1.662-11.064-.43ZM63.51 45.179c-6.8 8.307-26.002 11.067-36.344 11.697-1.11.067-5.8.214-6.254-.429L23.344 1.78C23.972.935 27.74.386 28.93.28c9.848-.82 26.59-.256 33.672 7.502 7.804 8.562 8.245 28.433.909 37.397ZM46.208 14.428c-2.82-.576-7.376.415-10.41 0-1.175 3.51-.053 7.37.014 10.813.107 4.663-.32 9.339.428 13.935 6.494-.027 12.84.08 15.58-6.767 1.657-4.14.962-10.223-1.016-14.176-.668-1.326-3.233-3.524-4.596-3.805Zm38.108 31.203 27.686-2.492c.107 1.876.748 3.752.868 5.614.094 1.273.348 6.954-.708 7.289l-39.418.911c-1.978-1.956-.348-14.216-.174-17.378.495-9.62.481-23.02 2.606-32.171 1.189-5.146 4.583-3.283 8.498-3.658 7.737-.75 15.754-2.05 23.518-2.506 1.656-.094 6.774-.563 7.255 1.126.307 1.098.922 6.177.949 7.45.053 2.398-.668 3.523-3.194 3.965-6.146 1.06-13.335 1.046-19.709 1.702-2.352.241-5.13-.978-5.639 2.332-.16 1.085-.48 4.81-.467 5.855.026 1.22.641 1.85 1.844 1.85 2.178-.014 6.133-1.3 8.511-1.609 1.15-.147 4.53-.683 5.345-.402 1.363.47 2.632 7.53 2.365 8.924-.548 2.84-7.736 2.117-9.848 2.318-1.55.147-7.736.63-8.618 1.045-.521.241-.708.75-.815 1.273-.522 2.586-.455 5.896-.856 8.575v-.013Zm124.936 0 27.686-2.492c.107 1.876.748 3.752.868 5.614.094 1.273.348 6.954-.708 7.289l-39.418.911c-1.978-1.956-.348-14.216-.174-17.378.495-9.62.481-23.02 2.606-32.171 1.189-5.146 4.583-3.283 8.498-3.658 7.737-.75 15.754-2.05 23.518-2.506 1.656-.094 6.774-.563 7.255 1.126.308 1.098.922 6.177.949 7.45.053 2.398-.668 3.523-3.194 3.965-6.146 1.06-13.335 1.046-19.709 1.702-2.352.241-5.131-.978-5.639 2.332-.16 1.085-.481 4.81-.467 5.855.026 1.22.641 1.85 1.844 1.85 2.178-.014 6.133-1.3 8.511-1.609 1.149-.147 4.53-.683 5.345-.402 1.363.47 2.633 7.53 2.365 8.924-.548 2.84-7.736 2.117-9.848 2.318-1.55.147-7.736.63-8.618 1.045-.521.241-.708.75-.815 1.273-.521 2.586-.455 5.896-.855 8.575v-.013ZM341.511.883c.334.495-.121 1.406-.361 1.916-1.417 3.001-12.146 15.797-12.16 17.043 3.982 8.736 10.182 17.258 13.763 26.115.481 1.206 1.63 3.39.936 4.542-.628 1.032-8.325 3.403-9.728 3.524-2.151.2-4.169-4.85-4.998-6.552-2.645-5.453-4.289-11.416-7.148-16.762-.695-.067-1.777 1.112-2.258 1.661-.909 1.019-7.39 9.594-7.577 10.21-.761 2.546.735 11.229-.467 12.77-.294.375-.669.509-1.11.589-1.897.362-5.638.737-7.616.858-.855.053-3.514.187-4.049-.175l1.056-53.207c.214-.308 6.227-.871 7.229-.871.842 0 2.539.107 2.966.884.254.456.976 6.834 1.042 7.906.188 2.947-.227 5.962.054 8.91.067.724.441 4.502 1.63 3.685L327.24 2.276c1.723-.938 13.429-2.586 14.244-1.367l.027-.026Z"/></svg>