<svg xmlns="http://www.w3.org/2000/svg" width="280" height="304" fill="none"><g filter="url(#a)"><path fill="#FFFCF7" stroke="#FFFCF7" stroke-linejoin="round" stroke-width="3" d="m223.83 264.03-15.315 9.131a24.046 24.046 0 0 1-23.237.768 24.047 24.047 0 0 0-20.221-.754l-6.819 2.86a37.439 37.439 0 0 1-34.185-2.699l-4.365-2.704a24.558 24.558 0 0 0-21.744-2.047l-5.315 2.042a20.659 20.659 0 0 1-12.394.764l-9.745-2.425a9.597 9.597 0 0 1-7.176-10.726l.15-1.009c.794-5.333 6.183-8.68 11.315-7.027l1.577.508c4.45 1.434 9.095-1.578 9.602-6.226a7.382 7.382 0 0 0-6.305-8.109l-15.03-2.126a23.055 23.055 0 0 1-13.24-6.693l-10.086-10.294a32.516 32.516 0 0 1-5.923-8.344l-2.996-6.055a20.202 20.202 0 0 1 .808-19.392 20.2 20.2 0 0 0 2.467-14.604l-6.208-29.418a8.065 8.065 0 0 0-6.614-6.298 8.062 8.062 0 0 1-6.277-5.141l-1.864-4.991a17.218 17.218 0 0 1 .4-13.025l8.87-19.93a19.096 19.096 0 0 1 14.554-11.11l4.128-.633a13.89 13.89 0 0 1 15.05 8.698l.474 1.22a11.647 11.647 0 0 0 21.976-.757l4.21-13.522a17.106 17.106 0 0 0-1.657-13.872 17.105 17.105 0 0 1 .402-18.216l2.88-4.358c5.56-8.418 17.131-10.277 25.048-4.025a17.226 17.226 0 0 0 16.148 2.815l25.656-8.595a35.127 35.127 0 0 1 20.274-.616l7.117 1.912a20.685 20.685 0 0 0 18.388-3.905c8.815-7.141 21.829-5.74 29.056 3.006 4.913 5.944 6.212 14.177 3.292 21.315l-.649 1.586a23.78 23.78 0 0 0 3.611 24.073l5.71 6.972a38.9 38.9 0 0 1 5.674 9.358l8.085 18.911a80.539 80.539 0 0 1 3.718 52.569l-6.365 23.659-9.596 22.673a19.87 19.87 0 0 1-6.17 7.995l-5.248 4.044c-6.322 4.873-7.169 14.093-1.839 20.035a13.723 13.723 0 0 1 3.254 11.791l-.147.752a15.264 15.264 0 0 1-7.164 10.189Z"/><path fill="#FFC855" d="m187.35 53.586-8.026 6.235 24.735 9.538 12.978-12.998.504-5.412-7.35 4.13-9.949 4.53 3.925-2.604 9.407-16.784-8.626 6.66-17.598 6.705ZM105.616 75.81l-1.601 2.58 9.145 3.263 10.159-20.568-23.085-11.792-.052 4.01 9.663 13.187-14.367-4.796.448 2.933 9.69 11.182Z"/><path fill="#191919" d="M221.162 245.482c-.698-.048-1.995-.832-2.984-1-3.05-.521-6.07-.471-9.127-.767-2.014-6.09-2.374-12.602-3.532-18.914l1.67-.952c-3.273 1.289-6.523 2.639-9.864 3.715-.943.303-1.889.591-2.837.866l3.284 16.238c-.155 1.098-4.646 1.972-5.552 2.35-6.43 2.676-10.029 5.906-15.445 10.134-.726 1.224-.899 2.476-.527 3.961.136-.021.681 1.101 1.874.634 5.25-5.399 11.415-8.693 18.473-10.221l-6.986 4.721c-1.517 1.785-4.958 3.193-5.216 5.81-.05.496.165 1.019.137 1.344.067.309.073.642.145.947l.326.274c.521-.048 1.201.116 1.985.018 1.843-1.91 3.809-3.774 5.875-5.384 1.196-.934 5.226-3.998 6.388-4.267.171-.039.444-.155.441.1-.695 1.575-4.15 5.534-3.987 7.086.036.341.259.514.369.746 1.316 2.766 3.474-.033 4.607-1.355 2.228-2.596 3.845-5.289 6.51-7.603 4.333-3.76 7.133-3.88 12.441-4.702.539-.083 1.235.211 1.634.037 1.553-.688 1.326-2.846-.099-3.813l-.003-.003Zm-49.535-12.765c3.95-.442 8.29-1.122 12.25-1.857-4.192.716-8.414 1.093-12.649 1.485-2.194.204-4.391.409-6.592.54-2.096.125-4.235.269-6.342.111-3.66-.275-7.304-1.817-10.976-1.644.48.146.957.293 1.436.429 1.804 5.586 3.469 11.244 4.924 16.951-4.093.732-8.108 1.995-11.989 3.542-3.359 1.341-7.614 3.246-10.391 5.713-1.224 1.087-4.492 4.622-2.349 6.427 1.624 1.367 3.308-1.142 4.254-1.934 4.571-3.829 9.695-6.744 15.431-7.8l-7.536 5.08c-1.995 1.406-3.399 3.423-4.988 5.306l.608 2.436c.27-.026 1.158.384 2.034.334 2.267-1.855 4.472-3.801 6.798-5.571.066-.05.197.005.277-.043l1.009-.802c2.143-1.933 4.85-3.548 7.618-3.919-2.511 1.97-5.234 4.048-7.183 6.763-.368.509-1.104 1.366-1.094 2.108.036 2.513 2.519 2.115 3.84 1.027.349-.29.824-.981 1.467-1.519 5.011-4.181 9.189-8.894 15.277-11.236 1.556-.598 4.838-.941 5.908-1.642 1.571-1.03.984-3.058-.518-3.878-.553-.093-1.43-.596-2.151-.737-1.037-.203-3.642-.013-4.28-.726-.529-.592-1.809-4.198-2.163-5.226-.383-1.115-2.855-8.958-2.64-9.366 3.57.169 7.168.043 10.707-.352h.003Z"/><path fill="#FFC855" d="M180.545 237.447c41.696-7.343 68.071-55.706 58.908-108.02-9.162-52.315-50.392-88.772-92.088-81.429-41.697 7.344-68.071 55.706-58.909 108.021 9.162 52.314 50.392 88.771 92.089 81.428Z"/><path fill="#191919" d="M101.774 52.333c.389-.513 4.098 2.224 4.711 2.605 5.194 3.224 11.093 5.6 16.983 7.127l-1.213-2.964c-5.995-1.65-12.35-4.098-17.165-8.218-1.826-1.563-4.423-7.185-6.56-4.354-2.345 3.102 1.308 9.535 3.105 12.344 1.012 1.584 1.893 3.695 3.308 4.787-3.669-.06-9.966-6.83-12.586-7.153-.756-.094-.982 1.212-.946 1.407.815 4.489 4.86 10.15 8.16 13.158.682.622 3.923 3.793 3.914 4.386a94.108 94.108 0 0 0-3.622 5.293 43.703 43.703 0 0 1 4.27.89c1.693-2.495 3.319-4.979 3.605-6.145.835-3.358-1.194-2.555-2.765-3.345-3.109-1.56-6.593-6.444-8.437-9.42.49-.124.39.438.907.724 2.711 1.492 12.589 5.823 15.229 4.93.331-.113.753-.346.797-.708.093-.723-6.799-6.652-7.771-7.926-1.685-2.208-2.928-4.71-4.592-6.922l.668-.496Zm19.077 178.624c-.761-1.648-.829-2.53-2.958-3.047-1.782-.435-4.517-.648-6.228-.007-.976.367-2.629 1.704-3.286 1.899-.824.243-1.842-2.262-2.024-2.862-.25-.834-.322-1.748-.275-2.69-1.164-.59-2.331-1.174-3.542-1.651-.291 2.589-.03 5.224 1.072 7.56.343.727 1.593 1.99 1.626 2.56.052.93-1.387 2.512-1.666 3.386-.55 1.721-.824 4.715-.54 6.492.32 1.988 2.183 4.111 1.966 5.754-.042.333-2.061 5.419-2.329 5.904-1.351 2.448-5.102 5.585-7.796 6.274-1.223.311-4.578.218-5.725-.346-.36-.178-2.523-2.141-2.605-2.319-.274-.592-.52-3.913-2.297-2.011-.862.922.053 3.765.778 4.585.094.109 2.06 1.711 2.182 1.789 1.817 1.167 4.405 1.497 6.512 1.254 3.083-.357 6.562-2.111 8.711-4.148 2.549-2.416 3.813-5.857 4.879-9.225 1.016-.334 1.586.713 2.258 1.001 2.959 1.256 6.777 1.255 9.246-1.006 2.369-2.165.073-5.053-2.374-5.915-2.092-.736-6.63-.301-8.47 1.085-1.682-2.044-1.82-4.529-1.214-7.06.1-.423.988-2.671 1.165-2.782.905-.556 1.631.632 2.29.909 1.216.512 2.626 1 3.954 1.084.498.03.895-.328 1.212-.342.307-.015.13.553.196.649.237.352.33-.5.365-.525.52-.416 2.9-.242 4.046-1.653.512-.631 1.627-3.422 1.41-4.19-.049-.174-.413-.131-.539-.406Zm-5.037 16.673c1.284 1.607-5.353 1.602-5.737-.176.976-.066 5.128-.584 5.737.176Zm1.364-15.048c-.634 1.126-2.262 1.192-3.449 1.025-.28-.041-2.946-.757-3.066-.865-.584-.528.201-.545.435-.674 1.134-.624 3.208-1.295 4.468-1.317.161-.003.146.404.259.448.951.355 1.988.244 1.35 1.384l.003-.001ZM55.388 98.024c-.574 3.396 1.018 9.192.072 13.024-.251 1.018.7 1.25-1.221 1.251-.33-.483.361-.356.477-.526.265-.393-.697-.045-.784-.213-.298-.578.124-1.066.045-1.436-.104-.488-1.154-1.982-1.201-2.522-.017-.217 1.11-.772-.102-.666-.111.01-.356.329-.389.302-.143-.114-.344-1.406-.3-1.687.054-.367.482-.414.49-.447.175-.813-.824-.349-.898-.519-.084-.187-.669-3.615-.71-4.026-.06-.615.462-.74.443-1.077-.053-1.02-.5-1.734-.326-3.058.156-1.175 1.15-3.869 2.599-3.57 1.863 1.56 2.21 2.757 1.804 5.164l.001.006Zm-22.763 24.165c.185.027.414.409.652.444 1.373.206 5.868.776 6.803 1.344.256.158.31.253.373.544l-.477.526c1.565-.305 3.634-.041 3.822 1.948-1.013.967-1.786.003-1.887.038-.407.146-.824.96-1.544.806-2.226-.787-8.77.18-10.409-.713-1.727-.941-.543-5.413 2.671-4.934l-.004-.003Zm5.497-14.515c.074.002 1.345.366 1.411.395 1.963.881 4.308 3.945 5.942 5.525.712.689 2.8 1.228 1.829 2.406-.275.333-.95.559-1.397.57-2.508.062-9.437-4.364-9.636-7.014-.064-.844 1.032-1.898 1.853-1.885l-.002.003Zm33.004 20.875c.03.083-.42.246-.187.76.583 1.281 2.51 4.271 3.396 5.444 1.002 1.327 2.609 1.944 2.984 3.574-1.326.883-3.06.276-4.109-.721-3.792-3.608-5.774-9.618-6.63-14.647-.331-1.935-.559-8.829 2.56-8.697 1.752.073.077 4.072-.034 5.114-.374 3.524.902 6.012 2.017 9.174l.003-.001Zm-14.099-9.478c.326.06-.047 5.876.03 6.611.626 6.122 6.277 15.963 11.066 19.66.073.057 1.898.139.483 1.113-.144.096-2.52-.826-2.972-1.17-6.69-5.125-12.108-16.865-9.465-25.141.123-.381.477-1.141.858-1.073Zm19.223 2.734c1.766.158 3.174 8.417 3.354 10.171.039.379.543 1.107-.135 1.353-1.63.593-1.997-4.631-2.205-5.381-.144-.518-2.55-6.282-1.01-6.147l-.003.004Z"/><path fill="#FFC855" d="M61.974 183.82c-.202.26-.09.693-.167.824l.167-.824Zm17.964-6.191c4.72 6.98-.043.188 4.691 6.878.226.318 6.92 8.023 9.952 9.843 1.18.708 3.612 1.712 4.97 1.52.428-.063 1.341-2.683 1.741-3.311.445-.696 2.187-3.288 2.537-3.697.791-.927 2.304-1.932 3.345-2.467 3.469-1.778 9.071-.906 12.15 1.437 1.788 1.362 4.943 5.76 6.877 6.239.472 1.544 1.969 2.779 2.755 4.123.738 1.264 2.542 5.827 2.578 7.203.08 3.124-.848 6.251-2.064 8.782-.492 1.023-1.316 1.366-1.984 2.061-.194.204.276.921.151.988-3.304 2.468-7.053 4.045-10.428 5.897-.506.382-1.015-.306-.925.476-.1-.357-.99-.794-1.124-.828-.795.856-2.99.667-2.977 1.874-.924-.666-.879.429-1.84.515-.61.055-1.036-.432-1.171-.427-.132.004-.315.494-.698.537-3.069.342-10.094-2.407-10.094-2.407-7.99-4.745-16.407-11.484-19.712-14.187a191.97 191.97 0 0 1-15.778-20.957c-.847-1.299-3.455-5.306-5.424-8.845-10.424-18.727-14.535-45.196-6.38-57.54 1.136-1.72 3.653-4.874 7.275-7.849 2.793-2.295 5.744-4.278 9.383-4.899.39-.066 6.056.826 6.49 1.047 4.019 2.034 4.49 4.419 6.844 7.482.382.497 1.01.446 1.505 1.282 3.463 5.844 5.368 14.831 2.647 21.267-.197.464-1.21 2.87-1.35 2.959-2.054 1.315-4.392 3.595-6.806 4.551-.687.274-4.038.481-4.986.52-.788.034-1.178-1.122-2.43.642-.099.138-1.362 2.864-1.408 3.026-.447 1.634.146 3.046.683 4.555 1.72 4.816 2.692 6.564 2.692 6.564 6.137 11.018 5.188 10.524 8.312 15.143v.003Zm-22.83-58.518c-.385-.07-.736.692-.858 1.073-2.644 8.277 2.774 20.016 9.465 25.142.45.344 2.828 1.269 2.971 1.169 1.415-.974-.406-1.056-.483-1.112-4.792-3.697-10.442-13.535-11.065-19.66-.074-.736.295-6.552-.03-6.612Zm14.063 9.542c-1.115-3.163-2.392-5.65-2.018-9.174.112-1.042 1.787-5.041.035-5.114-3.12-.132-2.888 6.765-2.56 8.697.855 5.029 2.838 11.039 6.63 14.647 1.048.997 2.782 1.603 4.108.721-.375-1.631-1.981-2.247-2.984-3.574-.888-1.173-2.815-4.162-3.395-5.444-.233-.514.216-.677.187-.76l-.003.001Zm5.103-6.469c-1.54-.135.872 5.625 1.016 6.146.208.751.58 5.974 2.212 5.377.678-.246.173-.977.134-1.356-.18-1.754-1.6-10.011-3.362-10.167Zm25.006 77.678c-1.815.851-.706 1.147-.588 1.872 1.15 6.999 9.375 15.901 16.439 17.015.347.053 1.661.191 1.772-.179.271-.892-.977-.021-1.039-.474 2.022-.818-1.391-1.717-2.163-2.164-4.636-2.699-10.977-8.366-12.943-13.063-.34-.808-1.085-1.298-1.318-1.812-.16-.351.286-.827-.164-1.194l.004-.001Zm10.305-5.408c-.236-.148-.475-1.146-1.041-.202-1.427 2.392 3.372 8.432 5.036 10.229 1.336 1.441 1.983 1.646 3.364 2.407.503.278.688.874 1.34 1.239 1.168.655 6.091 1.642 5.241-.669-.359-.977-.979-.331-1.708-.588-4.24-1.496-5.849-4.724-8.622-7.551-.188-.191-.603.257-.928-.226-.714-1.061-1.511-3.429-2.113-4.688-.108-.161-.498.093-.57.046l.001.003Zm8.319 3.485c.019-.699-3.023-4.635-4.1-3.39-.836.966 2.658 3.721 3.551 4.16.116-.212.546-.689.549-.77Zm-.218 2.287c-.413-.131-.832-.506-1.222-.191-.629 2.341 4.471 3.727 2.531 1.034-.548-.76-.656-.643-1.305-.844l-.004.001Zm2.99-.945c-.06-.013-1.06.613-1.077.674-.091.356 2.533 4.105 3.288 2.272-.382-.391-2.03-2.902-2.211-2.946Z"/><path fill="#191919" d="M101.426 199.456c.446.368 0 .844.16 1.195.233.51.721 1.043 1.057 1.852 1.96 4.698 8.768 10.541 13.402 13.243.768.448 4.182 1.35 2.159 2.165.063.449 1.212-.426.939.467-.114.37-1.702.583-2.046.529-7.062-1.12-15.65-10.191-16.794-17.191-.117-.722-.953-1.372.862-2.22l.261-.04Zm10.16-5.091c.075.047.462-.204.571-.042.593 1.263 1.368 3.637 2.076 4.702.319.485.741.041.925.233 2.751 2.85 4.333 6.089 8.559 7.619.727.264 1.351-.379 1.704.602.831 2.317-4.085 1.29-5.245.625-.649-.369-.831-.969-1.332-1.251-1.373-.772-2.017-.98-3.342-2.432-1.65-1.81-6.4-7.889-4.952-10.272.573-.938.803.061 1.039.212l-.003.004Zm8.413 3.599c-.004.081-.431.557-.547.769-.895-.435-4.391-3.183-3.559-4.151 1.073-1.248 4.124 2.68 4.106 3.382Z"/><path fill="#191919" d="M119.671 200.235c.651.204.762.087 1.307.847 1.934 2.697-3.162 1.298-2.526-1.041.39-.315.809.063 1.222.194h-.003Zm2.989-.977c.18.041 1.839 2.544 2.225 2.934-.745 1.835-3.386-1.902-3.299-2.258.016-.06 1.013-.692 1.073-.679l.001.003Z"/><path fill="#191919" d="M105.417 187.185c5.435-1.783 11.591-.475 16.199 2.798a18.59 18.59 0 0 1 5.773 6.631c1.438 2.786 2.202 5.869 2.345 9a22.63 22.63 0 0 1-1.972 10.266c-.178.392.061.883.449 1.037.429.17.842-.062 1.034-.45 3.119-6.287 3.171-13.945.06-20.245-2.993-6.065-8.57-10.657-15.19-12.11-3.674-.807-7.575-.57-11.068.856-.95.389-.298 1.847.651 1.459 5.822-2.376 12.655-1.007 17.636 2.658 5.09 3.748 8.313 9.688 8.666 16.007.209 3.715-.589 7.459-2.241 10.785l1.482.587c2.753-6.127 2.834-13.473.037-19.601-2.676-5.862-7.991-10.067-14.224-11.544-3.399-.803-6.973-.684-10.296.405-.408.134-.565.691-.402 1.058.191.426.643.538 1.055.404l.006-.001ZM220.49 47.242c-.484.756-2.058.545-2.465.792-.41.248-.252 1.39-.509 1.585-3.169 2.395-8.121 3.905-11.619 5.746l5.473-7.806c.895-2.035 3.018-3.764 3.581-5.95.099-.383.546-2.353.533-2.503-.015-.163-.984.125-.434-.752-1.079.726-2.143-.686-2.268-.68-1.06.05-4.689 4.787-5.928 5.754-4.832 3.765-16.149 9.475-22.444 10.274.169 1.229.005 1.844.104 3.083.119-.018.242-.037.359-.052.92-.503 2.301-.877 3.41-1.193.498-.141 1.111-.093 1.594-.245.244-.076.72-.356 1.226-.525 1.873-.617 3.805-1.267 5.653-1.961 1.144-.431 2.978-1.787 4.209-1.898 1.677-1.092 4.329-3.217 6.111-3.94.404-.162.626-.06.525.398-.389 1.777-4.35 6.246-5.81 7.496-2.107 1.804-5.825 2.69-4.212 5.946 1.202.055 2.375-.135 3.56-.21.214-.014.427-.076.64-.099 2.846-1.148 5.967-1.55 8.786-2.788 1.617-.708 3.089-2.01 4.753-2.642-1.02 2.191-2.736 3.745-4.404 5.366-2.364 2.296-3.067 2.977-6.201 4.305-1.111.472-2.212.97-3.41 1.194-1.303 2.974 1.291 4.46 2.774 6.652a76.396 76.396 0 0 1 2.424 3.837c1.286-.172 2.577-.334 3.866-.507-1.327-2.017-3.81-5.373-3.895-6.521-.102-1.365 1.167-2.46 2.112-3.07 3.428-2.215 6.796-5.669 8.948-9.188 1.945-3.18 4.606-6.097 2.961-9.902l-.003.004ZM84.738 215.97c-.66-2.33-1.874-4.397-2.535-6.737-.14-.499.011-.897-.01-.997-.164-.712-.805-1.675-.604-2.41-.075-.555-.048-1.135.011-1.635.13-1.087.483-2.432 1.388-3.133.15-.117.304-.121.43-.06.454-.509.769-1.382.843-1.423.403-.236 1.548-.383 1.649-.586.074-.147-.388-.684-.097-.842 1.016-.551 2.223-1.05 3.328-1.646.34-.185.83-.099 1.06-.224 2.225-1.216 4.04-4.091 2.217-6.423-1.183-1.513-3.072-1.827-4.859-2.019-.61-.064-1.907-.243-2.4-.213-.75.047-2.218 1.01-2.91.201l.71-.529c-.949.502-2.032.487-3.012.699-1.16.34-2.293.821-3.456 1.145-.916.71-2 1.032-3.044 1.687-2.916 1.825-6.82 4.918-7.476 8.45 2.73-1.487 5.044-3.601 7.708-5.223 3.118-1.899 10.258-5.951 13.756-4.413 1.597.706 3.124 1.836 1.66 3.525-1.082 1.253-2.808 1.137-4.413 2.221-4.224 2.854-8.276 8.834-7.225 14.089.594 2.955 2.396 4.553 3.752 7.142l2.462 2.377c-.46-1.33-1.898-2.609-.696-3.906l.791 1.508-.795.261.706 1.246.265-.971c.932 1.04.127 1.089.147 1.325.144 1.676 1.09 1.22 1.884 2.136.363-.156.072-1.346.005-1.659-.228-1.049-.48-2.084-.702-3.133-.175.031-.352.145-.53.179l-.008-.009Z"/><path fill="#191919" d="m85.984 212.604-.267.089-1.539-4.669c-.377-.149-.752-.301-1.13-.45a.471.471 0 0 1-.503.061 9.3 9.3 0 0 0 .348.968c1.265 2.92 1.69 3.996 2.37 7.199.167-.029.484-.21.531-.178.156.115 1.382 3.386 1.554 3.567.046.048.544-.09.8.359.335.588-.068 1.536.866 1.807l.136-1.816c.49.827.589 1.895 1.593 1.249l-.393-1.647.924 1.469-.872-2.666.878.89-.697-3.906c.926 1.966 1.228 5.253 2.551 6.841 1.583-.191.133-1.556-.104-2.221-1.105-3.116-2.104-6.322-3.157-9.481a103.788 103.788 0 0 1-5.352-1.913l1.466 4.45-.003-.002Z"/><path fill="#191919" d="M89.956 184.022c-.108-.643-.313-1.265-.71-1.841-.738-1.07-1.687-2.091-2.819-2.765-1.862-.35-.758-.74-.917-2.057-.364-3.036-1.367-3.988-3.289-6.056a2.572 2.572 0 0 0-.473-.373c-.677-.423-1.35-.854-2.078-1.191-.458-.211-.912-.436-1.386-.609a4.803 4.803 0 0 0-.38-.119c-.715.3-2.506-.281-3.24-.317a28.441 28.441 0 0 0-3.704.09c-.706.219-1.407.44-2.11.671-2.334.766-4.708 1.395-7.044 2.142-3.344 1.478-6.465 4.056-8.364 7.138a3.437 3.437 0 0 1-.153-.135c-.573.916-1.192 1.8-1.776 2.708-.471.732-.85 1.521-1.284 2.276-1.751 4.554-2.479 9.48-1.481 14.339 2.934 14.29 20.331 27.103 34.163 29.411 5.562.927 11.135.339 16.626-.805-.929-.928-1.898-1.826-2.807-2.77.006.018.016.036.022.058-8.657 1.844-17.936.437-25.623-3.924-12.3-6.976-22.8-18.339-18.643-33.419.758-2.742 5.238-8.63 7.51-10.431 4.188-3.314 9.699-4.733 14.987-4.456 4.424.232 6.915 1.657 7.811 6.295-3.62.476-7.268-.525-10.938.375-4.803 1.177-10.533 5.142-13.114 9.377-.307.503-1.028 1.164-.769 1.722 2.238-.822 3.435-2.995 5.285-4.33 5.631-4.066 13.279-5.361 19.847-3.799.576.138 1.06-.108 1.77.232.989.476 2.912 2.702 3.199 3.754.022.078.1 1.349.099 1.725.488-.35.84-.935 1.112-1.439.254-.469.484-.97.66-1.479l.01.002Z"/><path fill="#FFC855" d="M94.198 220.523c.91.433.813 2.624 1.344 3.059.221.183 1.099-.281 1.212.228-8.657 1.844-17.936.437-25.623-3.924-12.3-6.976-22.8-18.339-18.643-33.419.758-2.742 5.237-8.629 7.513-10.431 4.188-3.314 9.698-4.733 14.987-4.456 4.424.232 6.915 1.657 7.811 6.295-3.62.475-7.268-.526-10.939.374-4.802 1.178-10.532 5.143-13.113 9.378-.307.503-1.028 1.163-.769 1.722 2.238-.823 3.435-2.995 5.285-4.33 5.631-4.067 13.279-5.361 19.847-3.8.576.138 1.06-.108 1.77.233.989.475 2.912 2.702 3.199 3.754.023.087.12 1.74.095 1.825-.018.051-.75.216-.623.798-.61-.065-1.907-.244-2.4-.214-.75.048-2.218 1.01-2.91.202l.71-.53c-.95.502-2.032.487-3.012.699-.056.012-.484-.11-.997.014-1.095.262-2.234.851-3.342 1.131.078.473.583.082.883 0-.917.71-2 1.032-3.044 1.687-2.917 1.826-6.82 4.918-7.477 8.45 2.73-1.486 5.045-3.601 7.709-5.223 3.118-1.899 10.257-5.951 13.756-4.412 1.597.705 3.124 1.835 1.66 3.524-1.082 1.253-2.809 1.137-4.413 2.221-4.224 2.854-8.276 8.835-7.225 14.089.594 2.955 2.395 4.554 3.752 7.142l2.462 2.377c-.46-1.329-1.898-2.609-.697-3.906l.792 1.508-.795.261.706 1.247.264-.972c.933 1.04.128 1.089.148 1.325.143 1.676 1.09 1.22 1.884 2.136.363-.156.072-1.346.004-1.659-.228-1.048-.48-2.083-.7-3.133-.177.031-.353.145-.531.179-.66-2.33-1.875-4.397-2.536-6.737-.14-.499.012-.898-.01-.998l.706.357c1.264 2.917 1.69 3.996 2.37 7.199.167-.028.484-.21.53-.178.157.115 1.382 3.387 1.555 3.567.046.048.544-.09.8.359.335.589-.069 1.537.866 1.807l.135-1.815c.491.826.59 1.894 1.594 1.249l-.394-1.647.924 1.468-.871-2.666.877.89-.696-3.906c.926 1.966 1.228 5.253 2.551 6.842.454.544.417.896 1.326.449-.46-.502-.19-1.377-.258-1.687l-.01-.002Zm-2.572 1.149c-.235-1.154-.76-.98-.261.085l.26-.085Z"/><path fill="#191919" d="M81.147 209.233c2.578.199 5.66.402 7.506 2.485 1.847 2.083 1.689 5.014 2.807 7.371.614 1.296 1.526 2.411 2.84 3.03l-.21-1.365c-.062.055-2.326-3.008-2.561-3.325-.211-.281-.633-.365-.944-.226-.341.152-.483.494-.464.85.058 1.055.116 2.107.177 3.161.024.433.511.73.908.669.463-.071.688-.478.667-.911-.079-1.763-2.053-2.84-3.59-2.019l1.054.404-3.025-7.897c-.419-1.093-.96-2.21-2.127-2.648-1.03-.388-2.252-.197-3.08.541-.767.681.233 1.927 1.002 1.243.488-.434 1.222-.527 1.78-.147.374.256.575.703.746 1.107.223.525.414 1.062.618 1.593.875 2.288 1.754 4.578 2.629 6.865.146.385.688.599 1.055.404.688-.368 1.328.042 1.364.803l1.575-.243c-.058-1.054-.115-2.106-.176-3.161l-1.408.624c.706.949 1.41 1.901 2.121 2.846.292.389.633.783 1.098.96.534.203 1.15.137 1.588-.244.466-.411.34-1.106-.208-1.365-2.238-1.056-2.6-4.062-3.19-6.167-.39-1.386-.894-2.77-1.887-3.843-.92-.994-2.117-1.699-3.392-2.134-1.64-.556-3.369-.708-5.082-.839-1.021-.079-1.21 1.509-.186 1.587l-.005-.009Z"/><path fill="#191919" d="M82.033 215.361c.32 1.477 1.05 2.733 2.137 3.772l.945-1.29-1.348-.908c-.356-.24-.851-.187-1.116.171-.28.383-.145.821.171 1.118l2.402 2.234c.601.558 1.52-.288 1.2-.97-.786-1.657-.736-3.524-.957-5.311-.203-1.647-.655-3.359-1.824-4.596-.246-.259-.606-.379-.944-.226-.293.132-.553.518-.464.85l.973 3.582c.112.416.449.739.909.669.387-.06.779-.492.667-.911l-.973-3.582-1.408.624c1.077 1.14 1.374 2.702 1.53 4.214.187 1.811.24 3.659 1.036 5.338l1.2-.97-2.402-2.234-.945 1.289 1.348.909c.356.239.85.186 1.115-.171.28-.383.143-.818-.17-1.119a5.359 5.359 0 0 1-1.506-2.724c-.221-1.023-1.794-.765-1.576.242Z"/><path fill="#FFFCF7" d="M157.278 97.261c.662 10.641-5.05 21.523-17.381 24.853-6.376 1.726-12.803-4.458-15.37-9.522-4.272-8.42.908-18.37 7.972-23.614 7.044-5.227 14.408-4.428 16.809-4.354 3.087 1.23 3.99 1.783 4.167 2.6.07.31 1.219.783 1.747 1.581.193.294.769.16.881.427.518 1.217 1.08 6.457 1.175 8.03Zm45.961 7.857c-.743 1.763-.399 1.08-.811 2.944-.173.786-1.324 1.742-1.552 2.25-2.226 4.933-1.308 4.802-6.484 7.605-1.239.672-5.296 2.88-6.666 3.184-3.783.84-7.064.468-9.796-.761-7.559-3.401-10.306-14.329-9.071-22.454.362-2.38 1.943-12.78 11.099-16.547 8.543-3.518 16.632 1.639 17.431 2.166a17.38 17.38 0 0 1 3.074 3.065c5.924 7.643 3.144 17.667 2.776 18.548Z"/><path fill="#191919" d="M171.756 138.152c-.039.401-.585 2.8-1.232 2.45-.365-.196-2.301-6.748-2.768-7.859-3.297-7.878-9.914-9.064-14.606-1.426-1.578 2.567-2.379 5.432-2.411 8.451-.023 2.212.197 4.897 1.061 6.944.409.965 1.047 1.931 1.851 2.616.405-.854 1.052-1.494 1.56-2.219.141-.199.015-.665.15-.854.26-.366 3.897-2.526 4.522-2.696.811-.222 1.96-.405 2.801-.453 1.601-.094 8.562.977 7.489 3.47-.514 1.195-4.805-.591-6.228-.618-2.092-.04-4.063.398-5.729 1.695-2.234 1.737-3.035 5.947-6.578 3.291-.605-.454-2.674-2.852-2.934-3.433-3.773-8.342 2.262-25.129 13.388-24.194 5.935.498 10.192 9.597 9.667 14.838l-.003-.003Zm11.334-10.788c-.424-.113-1.381.351-1.457-.442-.008-.051.369-.261.351-.462-.059-.618-1.005-.945.188-1.409.226-.087 4.248.747 4.923.86 5.96-1.957 11.657-4.41 16.546-8.333.162 1.715-1.316 2.993-2.472 4.014-3.997 3.534-12.711 7.22-18.082 5.776l.003-.004Zm-61.714-7.135c-.194.039-.35.872-.312 1.163.148 1.116 4.691 3.713 6.032 4.299 6.104 2.677 13.566 3.587 18.833.45-2.582-1.576-5.744-.599-8.519-.735-5.878-.29-10.759-1.998-16.031-5.181l-.003.004Zm65.071-40.006c7.514-.084 15.073 4.546 18.218 11.875.531 1.234.638 2.65 1.308 3.744.096.735.226 1.478.353 2.209-.113 1.857.066 3.637-.24 5.498-1.121 6.804-5.944 13.625-12.023 16.389-11.562 5.259-21.266-.106-26.035-11.819-.221-1.256-.38-2.531-.608-3.787.203-1.479-.053-2.989.042-4.54.533-8.605 5.778-17.013 14.107-19.104 1.689-.424 3.189-.445 4.875-.464h.003Zm-14.499 27.258c4.33 10.905 13.668 13.793 23.214 7.745 9.455-5.993 9.883-19.885 1.351-27.25-1.724-1.487-5.316-3.978-7.506-4.279-1.14-.158.411 2.02.515 2.362.967 3.244-1.954 11.414-5.635 11.64-.325.021-2.751-.298-3.176-.404-3.985-.982-5.015-6.78-3.148-10.068.237-.414 1.864-1.266.693-1.163-4.939 3.28-6.741 7.185-7.321 13.16-.351 3.594-.353 4.804 1.015 8.251l-.002.006ZM158.52 93.208c.877 2.177 1.137 3.58 1.211 5.858.275 8.387-4.812 17.728-12.541 21.23-1.511.685-7.945 2.893-9.246 2.779-.229-.02-.269-.495-.538-.522-11.284-1.232-16.25-8.727-14.782-20.076 1.587-12.275 11.74-22.29 24.652-19.628 4.644.958 9.503 6.038 11.244 10.362v-.003Zm-32.454 11.664c-.062 1.936.149 4.348.641 6.261 1.904 7.42 10.093 10.152 16.806 7.83 7.48-2.581 13.992-11.779 13.385-19.782-.11-1.458-.369-2.666-.926-3.99-1.264-2.995-4.755-6.532-7.832-7.702-.545-.208-.957-.645-1.642-.382.372 2.016 1.146 3.954.281 5.997-.918 1.102-.685 1.616-1.314 2.754-.922 1.667-2.724 2.794-4.627 2.938-.376.029-3.16-.213-3.37-.297-.309-.124-2.44-2.319-2.663-2.743-.858-1.624-1.284-3.93-.536-5.66l2.698-3.112c-2.433-.027-3.991 2.395-5.392 4.159-2.993 3.774-5.349 8.822-5.506 13.728l-.003.001Z"/><path fill="#FFFCF7" d="M172.869 105.257c-1.212-3.034-1.19-4.095-.826-7.258.378 1.16.063 2.37.231 3.512.186 1.264 1.108 2.549.595 3.746Zm-20.365-9.085c-.439-.828-1.082-2.65-.828-3.565.499 1.18.729 2.261.828 3.565Z"/><path fill="#191919" d="M181.312 73.583c-2.694-.093-4.518.316-6.879.397-.565.02-1.212-.46-1.874-.19-.126-1.31.344-2.481 1.724-2.816.609-.149 1.19.127 1.691.028 2.945-.585 7.303-2.241 10.295-1.336.602.182.732.696.992.73 2.89.387 4.564.832 7.226 2.298.479.263 1.118.607 1.552.896 3.91 2.624 6.684 6.343 7.356 11.083-.429.166-.179-.331-.545-.488-.173-.077-.538.15-.645.105-.965-.408-1.483-2.676-3.044-3.225-1.023-1.614-3.539-3.456-5.208-4.457-2.858-1.715-7.349-2.745-10.664-3.044-.553-.05-1.361.041-1.981.02h.004ZM119.508 86.2c1.081-1.748 1.924-3.785 3.436-5.475 5.206-5.816 15.581-10.404 23.296-8.055 1.84.561 1.197.996 1.82 1.7.237.264 1.11-.08 1.146.447-1.052.398-1.846-.03-2.851-.124 1.127 1.676-1.357.338-2.09.334-.958-.002-3.284.22-4.317.362-3.663.508-5.693 1.338-8.879 3.069-1.736.942-3.487 1.848-4.877 3.307-2.389 1.414-3.746 4.898-6.687 4.435h.003Zm79.956 41.585.828-.023-.445-1.52-1.774.528c-.373.112-.534.619-.431.953a.799.799 0 0 0 .88.566 722.07 722.07 0 0 0 2.891-.451l-.241-1.579-2.097.458.445 1.519a31.207 31.207 0 0 0 6.854-4.584c.779-.686-.161-1.818-1.002-1.243l-2.488 1.701c-.356.243-.373.808-.118 1.124.29.36.765.362 1.121.119l2.487-1.701-1.002-1.243a29.573 29.573 0 0 1-6.501 4.368c-.774.381-.469 1.721.445 1.519l2.097-.458c.992-.217.782-1.74-.241-1.579-.965.148-1.928.299-2.892.45l.445 1.52 1.774-.528c.373-.113.534-.619.431-.953-.127-.41-.468-.577-.879-.566l-.829.024c-.43.011-.726.522-.667.911.072.47.475.68.909.668Z"/><path fill="#191919" d="M199.313 126.063c-.566.032-1.227.262-1.621.679-.342.359-.409.871-.11 1.284.246.344.671.405 1.06.377 1.088-.079 2.184-.313 3.238-.588.404-.104.756-.455.667-.911-.079-.388-.477-.78-.908-.668a21.641 21.641 0 0 1-3.134.575c-.079.009-.202-.018.018.01-.108-.012.041.016.066.029l.286.942-.075.083s.172-.101.052-.041c-.093.047.03-.014.045-.023.084-.042.169-.077.257-.114.127-.052-.029.005-.029.005a.645.645 0 0 1 .122-.029c.103-.019.204-.031.307-.037.418-.026.746-.516.667-.911-.093-.458-.461-.695-.909-.669l.001.007Zm-76.34 1.257c-.549-.384-.892-.855-1.114-1.507l-1.347.831c.501.554.999 1.111 1.499 1.665l1.092-1.148c-.254-.168-.512-.332-.766-.5-.86-.559-1.75.644-.945 1.29 1.804 1.44 3.916 2.412 6.164 2.901.42.091.838-.3.886-.702.055-.464-.276-.795-.7-.888-1.958-.424-3.822-1.337-5.408-2.6l-.945 1.29c.255.168.512.332.767.5.333.217.766.205 1.043-.096.257-.279.317-.75.045-1.052-.5-.553-.998-1.11-1.499-1.664-.622-.693-1.635-.024-1.346.831a4.373 4.373 0 0 0 1.623 2.143.813.813 0 0 0 1.116-.171.8.8 0 0 0-.171-1.118l.006-.005Zm87.873 44.568c-.468 8.861-6.258 26.371-16.489 27.784-.234.033-1.049.061-1.098-.303.793-.575 1.64-1.468 2.256-2.222 2.329-2.848 4.952-7.904 5.83-11.482.119-.491.473-3.003-.654-2.296-.117.073-1.318 2.007-1.502 2.323-3.429 5.904-5.267 11.153-11.815 14.691-9.656 5.218-23.911 5.756-34.199 2.768-1.047-.305-3.722-1.378-4.494-2.039-.26-.222-.23-.346-.26-.665 4.645.159 9.649.703 14.227-.317.833-.186 3.034-.844 3.671-1.282.134-.091.394-.629.413-.758.113-.778-1.184-.045-1.608.03-6.221 1.092-12.949 1.039-18.927-.264-2.468-.536-6.353-1.145-7.532-3.583 1.807-.142 3.626-.095 5.431-.143.639-.017 1.443-.351 1.999-.3.183.017.213.426.353.411.46-.045 1.186-.548 2-.563.444-.006.292.415.727.393 1.019-.046 2.176-.767 3.388-.792.453-.008.304.448.731.395 1.282-.158 3.028-1.011 4.501-.953l1.633-.71c-1.316-.024-2.619-.212-3.935-.259-7.027-.253-14.524.654-21.343.304-1.131-.059-3.761-.182-4.179-1.456-.109-.336 1.286-1.782 1.632-2.026 5.283-3.732 14.386-4.998 20.602-4.963 4.395.023 9.417.981 13.67-.057 16.14-3.941 32.404-25.767 34.98-41.79.122-.759.047-1.714.152-2.506-.03-.196-.49-.084-.589-.033-.368.186-2.515 6.773-2.917 7.733-2.404 5.767-5.008 10.444-8.733 15.443-5.381 7.22-13.768 16.13-22.529 19.002-1.551.507-2.323.706-3.03.724a9.822 9.822 0 0 1-3.153-.44c-1.548-.483-4.36-.886-9.913-.469a130.281 130.281 0 0 0-12.624 2.007c-2.888.919-6.77 2.272-8.576 4.403-.24.282-.46.892-.693 1.244-.024.667-.273 1.32-.191 1.983.072.574.273 1.09.592 1.548.279.287.587.596.788.73.054.037 1.021.583 1.082.603 1.088.383 2.999.441 4.181.451l-.021.032c.357.058.667.227.959.477.378.32.708.725 1.051 1.051 0 0 .004.006.007.005l2.363 1.936c1.602 1.283 4.334 1.436 5.934 2.345.787.444 1.468 1.614 2.142 2.157 9.366 7.573 28.53 6.138 39.049 1.958.596-.237 2.352-2.081 5.103-2.475.994-.143 1.136.023 2.596-.063.528-.029 3.456-.197 5.792-1.261 2.051-.933 3.367-2.425 4.798-4.414 3.784-5.247 11.455-16.162 7.536-22.583a7.246 7.246 0 0 0-1.174-1.456l.009-.008Zm-62.762 28.608-.035-.228c.16.053.171.129.035.228Zm68.219-18.851.745-14.668c.253-3.408-.901-7.017-1.075-10.266-.013-.251.092-1.78.452-1.58.287.722.702 1.386.959 2.123 2.087 5.933 2.784 18.155-.429 23.761-.173.301-.163.662-.649.63h-.003Z"/><path fill="#191919" d="m201.018 177.251 2.477-6.136 3.154-12.39c.44.204.417.556.51.953.932 4.031-2.568 12.953-4.932 16.349-.161.229-.939 1.432-1.209 1.224Zm-12.51 10.756c-.491 3.623-4.254 6.176-7.195 7.867-1.041.596-1.29.44-2.008.764-.169.075-.065.44-.176.454-.411.053-1.202-.229-1.745.061-.148-.905 1.02-.988 1.576-1.358a63.222 63.222 0 0 0 6.686-5.159c.976-.874 1.621-2.141 2.862-2.629ZM68.9 108.894c3.492-.252 6.667 1.854 8.86 4.401 1.195 1.391 2.195 2.935 3.109 4.522 1.021 1.77 1.957 3.589 2.74 5.48 1.437 3.478 2.36 7.278 1.983 11.061-.31 3.139-1.473 6.231-3.577 8.607-2.717 3.069-6.86 4.152-10.829 4.089-.43-.008-.83.241-.886.702-.046.395.267.881.7.888 4.012.066 8.177-.848 11.22-3.625 2.58-2.356 4.14-5.635 4.756-9.05.717-3.965.024-8.036-1.32-11.787-.742-2.069-1.69-4.057-2.752-5.983-.983-1.786-2.033-3.552-3.294-5.156-2.643-3.37-6.511-6.045-10.954-5.725-.431.031-.729.51-.667.911.07.455.477.7.908.669l.003-.004Z"/><path fill="#191919" d="M70.342 147.082c-1.628 1.544-2.482 3.676-2.407 5.919.012.418.52.748.908.669.466-.095.681-.461.667-.911-.004-.155-.005.049 0-.046.002-.048 0-.097.003-.149a7.044 7.044 0 0 1 .107-1.028c.019-.11.044-.217.066-.327.033-.144-.014.034.012-.051.015-.047.027-.094.04-.142a6.92 6.92 0 0 1 .523-1.28c.03-.053.06-.106.095-.16.056-.096.116-.189.18-.279a6.526 6.526 0 0 1 .64-.81c-.055.06-.028.027.014-.012.053-.054.107-.104.16-.154.302-.286.419-.785.119-1.124-.27-.305-.797-.424-1.121-.119l-.006.004Zm30.236 48.129a27.644 27.644 0 0 1 6.618-8.606c.648-.569.002-1.801-.829-1.35a13.005 13.005 0 0 0-6.556 9.026c-.08.423.292.838.7.888.453.054.806-.275.886-.702.603-3.248 2.725-6.18 5.625-7.755l-.829-1.35a29.684 29.684 0 0 0-7.095 9.258c-.189.388.072.888.449 1.037.429.17.842-.061 1.034-.45l-.003.004Zm-6.373 26.16c-.26 1.521 1.027 3.134 2.59 3.127.677-.004 1.167-.7.712-1.296-.582-.764-1.165-1.525-1.747-2.29l-1.091 1.148a25.568 25.568 0 0 0 16.683 2.995 25.285 25.285 0 0 0 4.691-1.251c.403-.149.57-.679.403-1.058-.186-.414-.28-.549-.686-.399-4.989 1.856-10.982 1.911-16.03.235a23.23 23.23 0 0 1-4.12-1.814c-.347-.196-.753-.218-1.044.095a.807.807 0 0 0-.045 1.052c.58.764 1.165 1.525 1.746 2.289l.711-1.296c-.76.004-1.314-.645-1.19-1.35.174-1.016-1.408-1.197-1.583-.187Z"/><path fill="#191919" d="M97.122 223.94c-.048.528-.07 1.078.163 1.569.233.492.663.859 1.184.934.577.083 1.049-.207 1.522-.486.473-.28.922-.549 1.387-.821.307-.183.52-.475.463-.851-.049-.322-.35-.667-.696-.672l-2.688-.033.029 1.583c1.097-.104 2.193-.211 3.289-.315l-.445-1.519c-.694.391-1.398.768-2.084 1.174-.686.406-1.225.825-1.572 1.532-.3.612.47 1.347 1.066 1.023a13.875 13.875 0 0 1 5.59-1.658c.43-.034.729-.506.667-.911-.07-.455-.478-.702-.909-.669a15.072 15.072 0 0 0-6 1.779l1.066 1.023c.162-.332.628-.598.989-.805l1.836-1.029c.775-.436.48-1.61-.445-1.519l-3.29.314c-.88.084-.878 1.574.03 1.583.907.01 1.79.023 2.688.034l-.233-1.523c-.63.375-1.279.727-1.896 1.119-.132.085-.046.078-.054.089.044.035.044.039 0 .003-.036-.03-.043-.032-.02-.009.05.034-.05-.093-.029-.038.028.073-.037-.117-.022-.042-.014-.072-.029-.144-.034-.218-.01-.147.015-.306.028-.454.095-1.023-1.488-1.21-1.583-.186l.003-.001Zm77.298-68.251c.009-.105.444-.825.7-.502 2.268 1.191 3.72 8.689 2.656 11.049-.671.086-2.163-2.756-2.252-3.338-.264-1.731-1.227-5.819-1.101-7.209h-.003Zm-20.226 7.683c1.192.877 2.399 8.397 1.848 8.931-2.974.35-4.827-8.529-2.761-9.186.148-.045.746.135.913.255Zm-13.265-3.435c1.014.43 3.112 9.2.517 8.008-.253-.117-2.031-4.451-2.121-5.168-.142-1.117-.134-3.575 1.604-2.84Zm19.095 53.596c.567.418 3.344 3.335 3.554 3.823.541 1.265-.325 1.802-1.538 1.313-2.141-.864-3.495-3.796-3.971-5.919.173-.24 1.708.601 1.958.783h-.003Zm21.059-1.059c.291-.462 2.861 1.669 3.174 2.009.448.484 1.847 2.173.915 2.569-1.575.665-4.433-2.947-4.088-4.575l-.001-.003Zm-51.719 3.523c-.571 1.229-1.59 2.27-2.786 3.151-1.201.885-2.626 1.641-4.072 2.288-2.879 1.287-5.97 2.191-7.662 2.775l-.47-1.371c1.783-.616 4.741-1.476 7.543-2.728 1.394-.624 2.717-1.332 3.805-2.132 1.092-.805 1.902-1.671 2.331-2.596l1.311.613ZM101.152 78.81a.658.658 0 0 1 .669.744.662.662 0 0 1 .436.416c.062.174.033.323.028.352-.003.015-.009.029-.013.043.174-.157.358-.304.553-.442l.349-.239.342-.223c.227-.147.441-.285.645-.43a.657.657 0 0 1 .917.158.662.662 0 0 1-.157.919c-.232.164-.468.316-.691.46-.227.148-.44.286-.646.431-.435.31-.78.646-1.058 1.065l-.115.184a2.11 2.11 0 0 0-.265.666l-.011.084-.003.06-.01.153c-.002.029-.01.13-.032.216a.662.662 0 0 1-.539.496.658.658 0 0 1-.744-.493.902.902 0 0 1-.019-.091l-.097-.635a2.705 2.705 0 0 1-.028-.376c-.127.162-.241.325-.389.525a6.17 6.17 0 0 1-.447.545l-.013.022-.02.032-.005.008-.005.009-.013.018-.028.037c-.01.012-.043.048-.066.07-.078.06-.606.15-.973-.098a1.232 1.232 0 0 1-.094-.596 1.147 1.147 0 0 1 .053-.12l.005-.01.004-.004a.766.766 0 0 0 .015-.041l.025-.079c.009-.029.021-.068.035-.107l.108-.284c.255-.664.556-1.326.88-1.948l.117-.2c.04-.062.078-.12.114-.172.079-.115.134-.189.19-.276l.109-.154c.111-.144.226-.258.332-.359h.001a.657.657 0 0 1 .554-.336Zm-2.472 3.941v.002l.002-.004-.002.002Zm107.681-11.562a.656.656 0 0 1 .879-.055l.05.045.226.23a6.454 6.454 0 0 1 1.221 1.824l.13.316c.041.104.078.207.113.305.072.205.131.382.198.555l.029.055c.036.055.103.12.253.239.169.134.504.379.694.793l.122.288c.113.29.204.585.285.862.113.384.208.727.33 1.056l.02.042.088.191c.071.155.164.358.253.56.088.2.177.411.239.578.029.08.062.174.082.26a.717.717 0 0 1-.049.51.669.669 0 0 1-1.096.149 1.371 1.371 0 0 1-.102-.121 7.33 7.33 0 0 1-.285-.442c-.011-.02-.032-.055-.052-.093l-.057-.12a.173.173 0 0 0-.023-.04 1.388 1.388 0 0 0-.087-.11l-.136-.155a2.993 2.993 0 0 1-.165-.208 3.826 3.826 0 0 0-.271-.338l.169 1.106c.008.055.02.186.024.278a.984.984 0 0 1-.005.17c-.002.016-.011.102-.053.198a.66.66 0 0 1-1.199.025.846.846 0 0 1-.042-.105l-.02-.066a1.62 1.62 0 0 0-.14-.311c-.049-.092-.123-.224-.189-.361l-.063-.138a19.622 19.622 0 0 0-.541-1.181l-.197-.384c-.188-.357-.301-.611-.471-.852-.097-.138-.257-.35-.383-.558a2.25 2.25 0 0 1-.318-.82.657.657 0 1 1 1.3-.2c.013.084.054.19.142.336.094.155.196.288.332.48l.082.121c0-.022-.001-.047.002-.072a.706.706 0 0 1 .084-.265.671.671 0 0 1 .486-.34l.043-.003a1.739 1.739 0 0 1-.269-.379l-.071-.157c-.077-.198-.148-.41-.213-.593a9.007 9.007 0 0 0-.1-.273l-.101-.247a5.153 5.153 0 0 0-.983-1.463l-.186-.19-.046-.05a.66.66 0 0 1 .037-.882Zm-23.092-17.614a5.99 5.99 0 0 1 .987-.165l.92-.066c.209-.018.4-.038.533-.058l.056-.009a.657.657 0 0 1 .954.587l-.005.085a.674.674 0 0 1-.364.518.914.914 0 0 1-.184.07c-.083.024-.179.04-.262.053a7.28 7.28 0 0 1-.225.028.658.658 0 0 1-.143.383.69.69 0 0 1 .216.614.694.694 0 0 1-.27.449l-.019.058-.03.068a.788.788 0 0 1-.204.257.91.91 0 0 1-.2.127.825.825 0 0 1-.562.055l-.112-.04a.815.815 0 0 0-.238-.065l-.12-.014a14.9 14.9 0 0 1-.368-.04 2.333 2.333 0 0 1-.247.072l-.222.055c-.127.045-.25.066-.329.08l-.175.03c-.281.07-.574.127-.86.171l-.484.075c-.04.006-.111.016-.182.016a.67.67 0 0 1-.317-.076.663.663 0 0 1-.211-1.002c.084-.106.184-.16.191-.165a1.113 1.113 0 0 1 .182-.086l.155-.065c.093-.042.187-.089.285-.137l-.168.027c-.025.003-.07.01-.118.012-.007 0-.098.007-.204-.021-.022-.006-.266-.063-.408-.317a.663.663 0 0 1 .057-.73c.067-.086.14-.133.158-.146a.743.743 0 0 1 .135-.07l.072-.024a8.48 8.48 0 0 1 .172-.053l.712-.212.176-.044c.056-.012.11-.022.158-.03.105-.02.176-.03.256-.048l.418-.098c.137-.035.278-.071.438-.11Zm2.144.19-.003.021.003-.021Zm.014-.07-.006.022.006-.021Z"/></g><defs><filter id="a" width="258.003" height="270.148" x="7.734" y="19.033" color-interpolation-filters="sRGB" filterUnits="userSpaceOnUse"><feFlood flood-opacity="0" result="BackgroundImageFix"/><feColorMatrix in="SourceAlpha" result="hardAlpha" values="0 0 0 0 0 0 0 0 0 0 0 0 0 0 0 0 0 0 127 0"/><feOffset dy="4.367"/><feGaussianBlur stdDeviation="2.184"/><feComposite in2="hardAlpha" operator="out"/><feColorMatrix values="0 0 0 0 0 0 0 0 0 0 0 0 0 0 0 0 0 0 0.25 0"/><feBlend in2="BackgroundImageFix" result="effect1_dropShadow_0_51"/><feBlend in="SourceGraphic" in2="effect1_dropShadow_0_51" result="shape"/></filter></defs></svg>